<svg width="300" height="200" viewBox="-576,-300,1152,600" style="max-width: 100%; height: auto; height: intrinsic;" xmlns="http://www.w3.org/2000/svg" xmlns:xlink="http://www.w3.org/1999/xlink"><g stroke="#999" stroke-opacity="0.6" stroke-linecap="round"><line stroke-width="1" x1="-182.56757264318753" y1="115.81606682964586" x2="-149.51865657619464" y2="88.84675369583033"/><line stroke-width="2.8284271247461903" x1="-102.16148544727332" y1="51.129607056990935" x2="-149.51865657619464" y2="88.84675369583033"/><line stroke-width="3.1622776601683795" x1="-91.87969329221013" y1="70.32744268258382" x2="-149.51865657619464" y2="88.84675369583033"/><line stroke-width="2.449489742783178" x1="-91.87969329221013" y1="70.32744268258382" x2="-102.16148544727332" y2="51.129607056990935"/><line stroke-width="1" x1="-187.0753622181402" y1="99.16106252046633" x2="-149.51865657619464" y2="88.84675369583033"/><line stroke-width="1" x1="-189.27721902666661" y1="77.61172465118659" x2="-149.51865657619464" y2="88.84675369583033"/><line stroke-width="1" x1="-174.98736576872466" y1="123.82708886764206" x2="-149.51865657619464" y2="88.84675369583033"/><line stroke-width="1" x1="-194.26612169264052" y1="89.88921681575918" x2="-149.51865657619464" y2="88.84675369583033"/><line stroke-width="1.4142135623730951" x1="-163.3218575449329" y1="128.04307162461475" x2="-149.51865657619464" y2="88.84675369583033"/><line stroke-width="1" x1="-192.01707987692905" y1="108.88533280444923" x2="-149.51865657619464" y2="88.84675369583033"/><line stroke-width="1" x1="-17.63803331245869" y1="19.865082324776044" x2="10.564255029660783" y2="43.03168239031618"/><line stroke-width="1.7320508075688772" x1="-17.63803331245869" y1="19.865082324776044" x2="-91.87969329221013" y2="70.32744268258382"/><line stroke-width="1.7320508075688772" x1="-17.63803331245869" y1="19.865082324776044" x2="-102.16148544727332" y2="51.129607056990935"/><line stroke-width="2.23606797749979" x1="-17.63803331245869" y1="19.865082324776044" x2="-149.51865657619464" y2="88.84675369583033"/><line stroke-width="1" x1="-24.55713593934678" y1="-72.30281954918863" x2="-17.63803331245869" y2="19.865082324776044"/><line stroke-width="1" x1="-5.255166296279055" y1="55.632519536103494" x2="-17.63803331245869" y2="19.865082324776044"/><line stroke-width="1" x1="-43.88810390062487" y1="51.20620807756204" x2="-17.63803331245869" y2="19.865082324776044"/><line stroke-width="1" x1="-54.179607326828894" y1="36.133253864212996" x2="-17.63803331245869" y2="19.865082324776044"/><line stroke-width="2" x1="-30.748364500930006" y1="-219.96711760377264" x2="14.849706213988549" y2="-183.0361083212302"/><line stroke-width="2" x1="-2.1156709126371713" y1="-249.5234987587165" x2="14.849706213988549" y2="-183.0361083212302"/><line stroke-width="2" x1="-2.1156709126371713" y1="-249.5234987587165" x2="-30.748364500930006" y2="-219.96711760377264"/><line stroke-width="2" x1="-8.788118774054114" y1="-223.01660954356385" x2="14.849706213988549" y2="-183.0361083212302"/><line stroke-width="2" x1="-8.788118774054114" y1="-223.01660954356385" x2="-30.748364500930006" y2="-219.96711760377264"/><line stroke-width="2" x1="-8.788118774054114" y1="-223.01660954356385" x2="-2.1156709126371713" y2="-249.5234987587165"/><line stroke-width="1.7320508075688772" x1="-23.170441439036647" y1="-250.26454877545" x2="14.849706213988549" y2="-183.0361083212302"/><line stroke-width="1.7320508075688772" x1="-23.170441439036647" y1="-250.26454877545" x2="-30.748364500930006" y2="-219.96711760377264"/><line stroke-width="1.7320508075688772" x1="-23.170441439036647" y1="-250.26454877545" x2="-2.1156709126371713" y2="-249.5234987587165"/><line stroke-width="2" x1="-23.170441439036647" y1="-250.26454877545" x2="-8.788118774054114" y2="-223.01660954356385"/><line stroke-width="1.7320508075688772" x1="11.233885229488655" y1="-232.99102092115803" x2="14.849706213988549" y2="-183.0361083212302"/><line stroke-width="1.7320508075688772" x1="11.233885229488655" y1="-232.99102092115803" x2="-30.748364500930006" y2="-219.96711760377264"/><line stroke-width="1.7320508075688772" x1="11.233885229488655" y1="-232.99102092115803" x2="-2.1156709126371713" y2="-249.5234987587165"/><line stroke-width="1.7320508075688772" x1="11.233885229488655" y1="-232.99102092115803" x2="-8.788118774054114" y2="-223.01660954356385"/><line stroke-width="2.23606797749979" x1="11.233885229488655" y1="-232.99102092115803" x2="-23.170441439036647" y2="-250.26454877545"/><line stroke-width="1.7320508075688772" x1="-40.87921150323016" y1="-237.52118139028403" x2="14.849706213988549" y2="-183.0361083212302"/><line stroke-width="1.7320508075688772" x1="-40.87921150323016" y1="-237.52118139028403" x2="-30.748364500930006" y2="-219.96711760377264"/><line stroke-width="1.7320508075688772" x1="-40.87921150323016" y1="-237.52118139028403" x2="-2.1156709126371713" y2="-249.5234987587165"/><line stroke-width="1.7320508075688772" x1="-40.87921150323016" y1="-237.52118139028403" x2="-8.788118774054114" y2="-223.01660954356385"/><line stroke-width="2" x1="-40.87921150323016" y1="-237.52118139028403" x2="-23.170441439036647" y2="-250.26454877545"/><line stroke-width="2" x1="-40.87921150323016" y1="-237.52118139028403" x2="11.233885229488655" y2="-232.99102092115803"/><line stroke-width="1.7320508075688772" x1="-26.97686094279156" y1="-147.03819767695882" x2="14.849706213988549" y2="-183.0361083212302"/><line stroke-width="1.7320508075688772" x1="-26.97686094279156" y1="-147.03819767695882" x2="-30.748364500930006" y2="-219.96711760377264"/><line stroke-width="1.7320508075688772" x1="-26.97686094279156" y1="-147.03819767695882" x2="-2.1156709126371713" y2="-249.5234987587165"/><line stroke-width="1.7320508075688772" x1="-26.97686094279156" y1="-147.03819767695882" x2="-8.788118774054114" y2="-223.01660954356385"/><line stroke-width="2" x1="-26.97686094279156" y1="-147.03819767695882" x2="-23.170441439036647" y2="-250.26454877545"/><line stroke-width="2" x1="-26.97686094279156" y1="-147.03819767695882" x2="11.233885229488655" y2="-232.99102092115803"/><line stroke-width="2" x1="-26.97686094279156" y1="-147.03819767695882" x2="-40.87921150323016" y2="-237.52118139028403"/><line stroke-width="1.4142135623730951" x1="-26.97686094279156" y1="-147.03819767695882" x2="-24.55713593934678" y2="-72.30281954918863"/><line stroke-width="3" x1="-26.97686094279156" y1="-147.03819767695882" x2="-17.63803331245869" y2="19.865082324776044"/><line stroke-width="1.4142135623730951" x1="-37.87574855193524" y1="-68.22357021978925" x2="-26.97686094279156" y2="-147.03819767695882"/><line stroke-width="2.6457513110645907" x1="-37.87574855193524" y1="-68.22357021978925" x2="-17.63803331245869" y2="19.865082324776044"/><line stroke-width="3.605551275463989" x1="-6.473296838740227" y1="-50.32641651833808" x2="-37.87574855193524" y2="-68.22357021978925"/><line stroke-width="1" x1="-6.473296838740227" y1="-50.32641651833808" x2="-26.97686094279156" y2="-147.03819767695882"/><line stroke-width="3.4641016151377544" x1="-6.473296838740227" y1="-50.32641651833808" x2="-17.63803331245869" y2="19.865082324776044"/><line stroke-width="2" x1="27.8506176961326" y1="-74.52172160627637" x2="-37.87574855193524" y2="-68.22357021978925"/><line stroke-width="5.5677643628300215" x1="27.8506176961326" y1="-74.52172160627637" x2="-17.63803331245869" y2="19.865082324776044"/><line stroke-width="1" x1="27.8506176961326" y1="-74.52172160627637" x2="14.849706213988549" y2="-183.0361083212302"/><line stroke-width="1" x1="27.8506176961326" y1="-74.52172160627637" x2="-6.473296838740227" y2="-50.32641651833808"/><line stroke-width="4.123105625617661" x1="-26.116393349860502" y1="-33.15733761803082" x2="-17.63803331245869" y2="19.865082324776044"/><line stroke-width="2.23606797749979" x1="-26.116393349860502" y1="-33.15733761803082" x2="-26.97686094279156" y2="-147.03819767695882"/><line stroke-width="2.23606797749979" x1="-26.116393349860502" y1="-33.15733761803082" x2="-6.473296838740227" y2="-50.32641651833808"/><line stroke-width="1" x1="-26.116393349860502" y1="-33.15733761803082" x2="-37.87574855193524" y2="-68.22357021978925"/><line stroke-width="1" x1="-26.116393349860502" y1="-33.15733761803082" x2="27.8506176961326" y2="-74.52172160627637"/><line stroke-width="2.8284271247461903" x1="-86.01678072583347" y1="-8.917812853352837" x2="-17.63803331245869" y2="19.865082324776044"/><line stroke-width="1" x1="-86.01678072583347" y1="-8.917812853352837" x2="-26.116393349860502" y2="-33.15733761803082"/><line stroke-width="1" x1="-37.51141922384537" y1="39.43503902997034" x2="-26.97686094279156" y2="-147.03819767695882"/><line stroke-width="1" x1="-37.51141922384537" y1="39.43503902997034" x2="-26.116393349860502" y2="-33.15733761803082"/><line stroke-width="1.4142135623730951" x1="-37.51141922384537" y1="39.43503902997034" x2="-17.63803331245869" y2="19.865082324776044"/><line stroke-width="1" x1="-63.790031954754696" y1="-139.38942869453012" x2="-26.97686094279156" y2="-147.03819767695882"/><line stroke-width="1.4142135623730951" x1="-44.598238097631956" y1="-86.04343100269618" x2="-63.790031954754696" y2="-139.38942869453012"/><line stroke-width="1.7320508075688772" x1="-44.598238097631956" y1="-86.04343100269618" x2="-17.63803331245869" y2="19.865082324776044"/><line stroke-width="1.4142135623730951" x1="-44.598238097631956" y1="-86.04343100269618" x2="-26.97686094279156" y2="-147.03819767695882"/><line stroke-width="1" x1="-44.598238097631956" y1="-86.04343100269618" x2="-26.116393349860502" y2="-33.15733761803082"/><line stroke-width="1" x1="-23.880116622630766" y1="58.080999560477984" x2="-17.63803331245869" y2="19.865082324776044"/><line stroke-width="1.4142135623730951" x1="-57.18276219163485" y1="-2.4003712906119867" x2="-17.63803331245869" y2="19.865082324776044"/><line stroke-width="1" x1="-57.18276219163485" y1="-2.4003712906119867" x2="-26.116393349860502" y2="-33.15733761803082"/><line stroke-width="1.7320508075688772" x1="-14.394531475717265" y1="106.50941112371514" x2="-17.63803331245869" y2="19.865082324776044"/><line stroke-width="1.4142135623730951" x1="-14.394531475717265" y1="106.50941112371514" x2="-37.51141922384537" y2="39.43503902997034"/><line stroke-width="1.7320508075688772" x1="-52.959590471947905" y1="88.16435904004558" x2="-17.63803331245869" y2="19.865082324776044"/><line stroke-width="1.7320508075688772" x1="-52.959590471947905" y1="88.16435904004558" x2="-14.394531475717265" y2="106.50941112371514"/><line stroke-width="1.4142135623730951" x1="-52.959590471947905" y1="88.16435904004558" x2="-37.51141922384537" y2="39.43503902997034"/><line stroke-width="1.4142135623730951" x1="-26.52650262866392" y1="91.80885507588647" x2="-14.394531475717265" y2="106.50941112371514"/><line stroke-width="1.4142135623730951" x1="-26.52650262866392" y1="91.80885507588647" x2="-52.959590471947905" y2="88.16435904004558"/><line stroke-width="1.4142135623730951" x1="-26.52650262866392" y1="91.80885507588647" x2="-17.63803331245869" y2="19.865082324776044"/><line stroke-width="1" x1="-26.52650262866392" y1="91.80885507588647" x2="-37.51141922384537" y2="39.43503902997034"/><line stroke-width="1.4142135623730951" x1="-36.864236787422136" y1="115.14531722847613" x2="-14.394531475717265" y2="106.50941112371514"/><line stroke-width="1.4142135623730951" x1="-36.864236787422136" y1="115.14531722847613" x2="-52.959590471947905" y2="88.16435904004558"/><line stroke-width="1.4142135623730951" x1="-36.864236787422136" y1="115.14531722847613" x2="-26.52650262866392" y2="91.80885507588647"/><line stroke-width="1.4142135623730951" x1="-36.864236787422136" y1="115.14531722847613" x2="-17.63803331245869" y2="19.865082324776044"/><line stroke-width="1" x1="-36.864236787422136" y1="115.14531722847613" x2="-37.51141922384537" y2="39.43503902997034"/><line stroke-width="1.4142135623730951" x1="-58.672033109726684" y1="106.01031553083364" x2="-14.394531475717265" y2="106.50941112371514"/><line stroke-width="1.4142135623730951" x1="-58.672033109726684" y1="106.01031553083364" x2="-52.959590471947905" y2="88.16435904004558"/><line stroke-width="1.4142135623730951" x1="-58.672033109726684" y1="106.01031553083364" x2="-26.52650262866392" y2="91.80885507588647"/><line stroke-width="1.4142135623730951" x1="-58.672033109726684" y1="106.01031553083364" x2="-36.864236787422136" y2="115.14531722847613"/><line stroke-width="1.4142135623730951" x1="-58.672033109726684" y1="106.01031553083364" x2="-17.63803331245869" y2="19.865082324776044"/><line stroke-width="1" x1="-58.672033109726684" y1="106.01031553083364" x2="-37.51141922384537" y2="39.43503902997034"/><line stroke-width="1" x1="52.50040652252823" y1="-58.2675548145709" x2="-6.473296838740227" y2="-50.32641651833808"/><line stroke-width="1" x1="-49.51870667235556" y1="-70.849952723362" x2="-6.473296838740227" y2="-50.32641651833808"/><line stroke-width="1.4142135623730951" x1="32.0547004023152" y1="-9.025775940549119" x2="-37.87574855193524" y2="-68.22357021978925"/><line stroke-width="1.7320508075688772" x1="32.0547004023152" y1="-9.025775940549119" x2="-6.473296838740227" y2="-50.32641651833808"/><line stroke-width="1.4142135623730951" x1="-39.129249659392364" y1="-41.69751257214924" x2="32.0547004023152" y2="-9.025775940549119"/><line stroke-width="1.4142135623730951" x1="-39.129249659392364" y1="-41.69751257214924" x2="-6.473296838740227" y2="-50.32641651833808"/><line stroke-width="1" x1="-39.129249659392364" y1="-41.69751257214924" x2="-37.87574855193524" y2="-68.22357021978925"/><line stroke-width="1.7320508075688772" x1="9.19840600631349" y1="-28.559941997917853" x2="-17.63803331245869" y2="19.865082324776044"/><line stroke-width="1" x1="9.19840600631349" y1="-28.559941997917853" x2="27.8506176961326" y2="-74.52172160627637"/><line stroke-width="1" x1="9.19840600631349" y1="-28.559941997917853" x2="-26.116393349860502" y2="-33.15733761803082"/><line stroke-width="1.7320508075688772" x1="-72.43741630040807" y1="22.986938037540178" x2="-86.01678072583347" y2="-8.917812853352837"/><line stroke-width="1" x1="-72.43741630040807" y1="22.986938037540178" x2="-17.63803331245869" y2="19.865082324776044"/><line stroke-width="1.4142135623730951" x1="-131.13466827551517" y1="-11.811635598296242" x2="-86.01678072583347" y2="-8.917812853352837"/><line stroke-width="1" x1="75.50256466259815" y1="118.12145085935998" x2="74.23279473036138" y2="164.8324457301844"/><line stroke-width="1.4142135623730951" x1="75.52057453054358" y1="51.740750941736636" x2="75.50256466259815" y2="118.12145085935998"/><line stroke-width="1" x1="75.52057453054358" y1="51.740750941736636" x2="-6.473296838740227" y2="-50.32641651833808"/><line stroke-width="1" x1="75.52057453054358" y1="51.740750941736636" x2="-26.116393349860502" y2="-33.15733761803082"/><line stroke-width="1" x1="75.52057453054358" y1="51.740750941736636" x2="-17.63803331245869" y2="19.865082324776044"/><line stroke-width="1.7320508075688772" x1="56.21727688240714" y1="-37.5680896982638" x2="27.8506176961326" y2="-74.52172160627637"/><line stroke-width="1.4142135623730951" x1="56.21727688240714" y1="-37.5680896982638" x2="-17.63803331245869" y2="19.865082324776044"/><line stroke-width="1" x1="9.914523084336112" y1="-78.4572571836244" x2="56.21727688240714" y2="-37.5680896982638"/><line stroke-width="1" x1="9.914523084336112" y1="-78.4572571836244" x2="-37.87574855193524" y2="-68.22357021978925"/><line stroke-width="3" x1="64.56238638362744" y1="-61.41542248333768" x2="56.21727688240714" y2="-37.5680896982638"/><line stroke-width="1.4142135623730951" x1="64.56238638362744" y1="-61.41542248333768" x2="27.8506176961326" y2="-74.52172160627637"/><line stroke-width="1.4142135623730951" x1="64.56238638362744" y1="-61.41542248333768" x2="-17.63803331245869" y2="19.865082324776044"/><line stroke-width="1" x1="65.7048242301645" y1="-103.52290995637638" x2="64.56238638362744" y2="-61.41542248333768"/><line stroke-width="1" x1="65.7048242301645" y1="-103.52290995637638" x2="52.50040652252823" y2="-58.2675548145709"/><line stroke-width="1" x1="87.30626812002753" y1="-96.76407652733116" x2="64.56238638362744" y2="-61.41542248333768"/><line stroke-width="1.4142135623730951" x1="91.0787829803314" y1="-66.73382094607757" x2="64.56238638362744" y2="-61.41542248333768"/><line stroke-width="1" x1="91.0787829803314" y1="-66.73382094607757" x2="56.21727688240714" y2="-37.5680896982638"/><line stroke-width="1" x1="91.0787829803314" y1="-66.73382094607757" x2="27.8506176961326" y2="-74.52172160627637"/><line stroke-width="2.449489742783178" x1="96.64702387108343" y1="-11.36064306715062" x2="64.56238638362744" y2="-61.41542248333768"/><line stroke-width="3.4641016151377544" x1="96.64702387108343" y1="-11.36064306715062" x2="56.21727688240714" y2="-37.5680896982638"/><line stroke-width="1" x1="96.64702387108343" y1="-11.36064306715062" x2="52.50040652252823" y2="-58.2675548145709"/><line stroke-width="1" x1="96.64702387108343" y1="-11.36064306715062" x2="91.0787829803314" y2="-66.73382094607757"/><line stroke-width="4.58257569495584" x1="96.64702387108343" y1="-11.36064306715062" x2="27.8506176961326" y2="-74.52172160627637"/><line stroke-width="4.358898943540674" x1="96.64702387108343" y1="-11.36064306715062" x2="-17.63803331245869" y2="19.865082324776044"/><line stroke-width="1" x1="96.64702387108343" y1="-11.36064306715062" x2="14.849706213988549" y2="-183.0361083212302"/><line stroke-width="1.4142135623730951" x1="96.64702387108343" y1="-11.36064306715062" x2="-6.473296838740227" y2="-50.32641651833808"/><line stroke-width="2.23606797749979" x1="96.64702387108343" y1="-11.36064306715062" x2="32.0547004023152" y2="-9.025775940549119"/><line stroke-width="2" x1="96.64702387108343" y1="-11.36064306715062" x2="75.52057453054358" y2="51.740750941736636"/><line stroke-width="1" x1="105.1006187309403" y1="-45.80702971044576" x2="56.21727688240714" y2="-37.5680896982638"/><line stroke-width="1" x1="105.1006187309403" y1="-45.80702971044576" x2="96.64702387108343" y2="-11.36064306715062"/><line stroke-width="1" x1="139.28043787224698" y1="21.850740590456" x2="96.64702387108343" y2="-11.36064306715062"/><line stroke-width="1" x1="139.28043787224698" y1="21.850740590456" x2="32.0547004023152" y2="-9.025775940549119"/><line stroke-width="1" x1="139.28043787224698" y1="21.850740590456" x2="75.52057453054358" y2="51.740750941736636"/><line stroke-width="2.6457513110645907" x1="99.9911662364165" y1="44.70532762620116" x2="96.64702387108343" y2="-11.36064306715062"/><line stroke-width="2.6457513110645907" x1="99.9911662364165" y1="44.70532762620116" x2="75.52057453054358" y2="51.740750941736636"/><line stroke-width="2.449489742783178" x1="99.9911662364165" y1="44.70532762620116" x2="-26.116393349860502" y2="-33.15733761803082"/><line stroke-width="1" x1="99.9911662364165" y1="44.70532762620116" x2="139.28043787224698" y2="21.850740590456"/><line stroke-width="2" x1="99.9911662364165" y1="44.70532762620116" x2="-17.63803331245869" y2="19.865082324776044"/><line stroke-width="3.872983346207417" x1="153.39440801291047" y1="52.791171859744814" x2="99.9911662364165" y2="44.70532762620116"/><line stroke-width="2.23606797749979" x1="153.39440801291047" y1="52.791171859744814" x2="96.64702387108343" y2="-11.36064306715062"/><line stroke-width="2.449489742783178" x1="153.39440801291047" y1="52.791171859744814" x2="75.52057453054358" y2="51.740750941736636"/><line stroke-width="1.4142135623730951" x1="153.39440801291047" y1="52.791171859744814" x2="139.28043787224698" y2="21.850740590456"/><line stroke-width="1" x1="162.1146156830619" y1="93.04608020801734" x2="75.52057453054358" y2="51.740750941736636"/><line stroke-width="2" x1="162.1146156830619" y1="93.04608020801734" x2="99.9911662364165" y2="44.70532762620116"/><line stroke-width="1.4142135623730951" x1="162.1146156830619" y1="93.04608020801734" x2="153.39440801291047" y2="52.791171859744814"/><line stroke-width="1.4142135623730951" x1="144.12620657918086" y1="72.6785015971314" x2="75.52057453054358" y2="51.740750941736636"/><line stroke-width="2.449489742783178" x1="144.12620657918086" y1="72.6785015971314" x2="99.9911662364165" y2="44.70532762620116"/><line stroke-width="1.4142135623730951" x1="144.12620657918086" y1="72.6785015971314" x2="162.1146156830619" y2="93.04608020801734"/><line stroke-width="2.23606797749979" x1="144.12620657918086" y1="72.6785015971314" x2="153.39440801291047" y2="52.791171859744814"/><line stroke-width="1" x1="144.12620657918086" y1="72.6785015971314" x2="139.28043787224698" y2="21.850740590456"/><line stroke-width="1" x1="144.12620657918086" y1="72.6785015971314" x2="96.64702387108343" y2="-11.36064306715062"/><line stroke-width="3" x1="132.78713662625887" y1="48.41563652942718" x2="96.64702387108343" y2="-11.36064306715062"/><line stroke-width="4.123105625617661" x1="132.78713662625887" y1="48.41563652942718" x2="99.9911662364165" y2="44.70532762620116"/><line stroke-width="3.605551275463989" x1="132.78713662625887" y1="48.41563652942718" x2="153.39440801291047" y2="52.791171859744814"/><line stroke-width="2.6457513110645907" x1="132.78713662625887" y1="48.41563652942718" x2="75.52057453054358" y2="51.740750941736636"/><line stroke-width="1.4142135623730951" x1="132.78713662625887" y1="48.41563652942718" x2="139.28043787224698" y2="21.850740590456"/><line stroke-width="1" x1="132.78713662625887" y1="48.41563652942718" x2="32.0547004023152" y2="-9.025775940549119"/><line stroke-width="2.449489742783178" x1="132.78713662625887" y1="48.41563652942718" x2="144.12620657918086" y2="72.6785015971314"/><line stroke-width="1.7320508075688772" x1="132.78713662625887" y1="48.41563652942718" x2="162.1146156830619" y2="93.04608020801734"/><line stroke-width="2.23606797749979" x1="170.16765347186376" y1="70.19720998084401" x2="153.39440801291047" y2="52.791171859744814"/><line stroke-width="2.23606797749979" x1="170.16765347186376" y1="70.19720998084401" x2="75.52057453054358" y2="51.740750941736636"/><line stroke-width="2.449489742783178" x1="170.16765347186376" y1="70.19720998084401" x2="132.78713662625887" y2="48.41563652942718"/><line stroke-width="1.4142135623730951" x1="170.16765347186376" y1="70.19720998084401" x2="139.28043787224698" y2="21.850740590456"/><line stroke-width="2" x1="170.16765347186376" y1="70.19720998084401" x2="99.9911662364165" y2="44.70532762620116"/><line stroke-width="1.7320508075688772" x1="170.16765347186376" y1="70.19720998084401" x2="144.12620657918086" y2="72.6785015971314"/><line stroke-width="1.4142135623730951" x1="170.16765347186376" y1="70.19720998084401" x2="162.1146156830619" y2="93.04608020801734"/><line stroke-width="1" x1="170.16765347186376" y1="70.19720998084401" x2="96.64702387108343" y2="-11.36064306715062"/><line stroke-width="2.23606797749979" x1="114.53827726445749" y1="69.61581635856511" x2="96.64702387108343" y2="-11.36064306715062"/><line stroke-width="3.4641016151377544" x1="114.53827726445749" y1="69.61581635856511" x2="132.78713662625887" y2="48.41563652942718"/><line stroke-width="2.23606797749979" x1="114.53827726445749" y1="69.61581635856511" x2="75.52057453054358" y2="51.740750941736636"/><line stroke-width="2" x1="114.53827726445749" y1="69.61581635856511" x2="170.16765347186376" y2="70.19720998084401"/><line stroke-width="3.1622776601683795" x1="114.53827726445749" y1="69.61581635856511" x2="99.9911662364165" y2="44.70532762620116"/><line stroke-width="2.449489742783178" x1="114.53827726445749" y1="69.61581635856511" x2="144.12620657918086" y2="72.6785015971314"/><line stroke-width="1.4142135623730951" x1="114.53827726445749" y1="69.61581635856511" x2="162.1146156830619" y2="93.04608020801734"/><line stroke-width="3" x1="114.53827726445749" y1="69.61581635856511" x2="153.39440801291047" y2="52.791171859744814"/><line stroke-width="1" x1="114.53827726445749" y1="69.61581635856511" x2="139.28043787224698" y2="21.850740590456"/><line stroke-width="1" x1="114.53827726445749" y1="69.61581635856511" x2="-17.63803331245869" y2="19.865082324776044"/><line stroke-width="2.23606797749979" x1="170.09170340304908" y1="50.0951438341455" x2="170.16765347186376" y2="70.19720998084401"/><line stroke-width="2.6457513110645907" x1="170.09170340304908" y1="50.0951438341455" x2="114.53827726445749" y2="69.61581635856511"/><line stroke-width="1.7320508075688772" x1="170.09170340304908" y1="50.0951438341455" x2="75.52057453054358" y2="51.740750941736636"/><line stroke-width="2.23606797749979" x1="170.09170340304908" y1="50.0951438341455" x2="132.78713662625887" y2="48.41563652942718"/><line stroke-width="2.23606797749979" x1="170.09170340304908" y1="50.0951438341455" x2="99.9911662364165" y2="44.70532762620116"/><line stroke-width="2.23606797749979" x1="170.09170340304908" y1="50.0951438341455" x2="144.12620657918086" y2="72.6785015971314"/><line stroke-width="1.4142135623730951" x1="170.09170340304908" y1="50.0951438341455" x2="162.1146156830619" y2="93.04608020801734"/><line stroke-width="2.23606797749979" x1="170.09170340304908" y1="50.0951438341455" x2="153.39440801291047" y2="52.791171859744814"/><line stroke-width="1" x1="170.09170340304908" y1="50.0951438341455" x2="139.28043787224698" y2="21.850740590456"/><line stroke-width="1.4142135623730951" x1="170.09170340304908" y1="50.0951438341455" x2="96.64702387108343" y2="-11.36064306715062"/><line stroke-width="1.7320508075688772" x1="149.32134502487108" y1="108.54900111010768" x2="114.53827726445749" y2="69.61581635856511"/><line stroke-width="1.7320508075688772" x1="149.32134502487108" y1="108.54900111010768" x2="99.9911662364165" y2="44.70532762620116"/><line stroke-width="1" x1="149.32134502487108" y1="108.54900111010768" x2="153.39440801291047" y2="52.791171859744814"/><line stroke-width="1.4142135623730951" x1="149.32134502487108" y1="108.54900111010768" x2="132.78713662625887" y2="48.41563652942718"/><line stroke-width="1.4142135623730951" x1="149.32134502487108" y1="108.54900111010768" x2="170.09170340304908" y2="50.0951438341455"/><line stroke-width="1" x1="149.32134502487108" y1="108.54900111010768" x2="75.52057453054358" y2="51.740750941736636"/><line stroke-width="1" x1="149.32134502487108" y1="108.54900111010768" x2="170.16765347186376" y2="70.19720998084401"/><line stroke-width="1" x1="149.32134502487108" y1="108.54900111010768" x2="144.12620657918086" y2="72.6785015971314"/><line stroke-width="1" x1="149.32134502487108" y1="108.54900111010768" x2="162.1146156830619" y2="93.04608020801734"/><line stroke-width="1.7320508075688772" x1="177.3995278759024" y1="10.277585564779606" x2="139.28043787224698" y2="21.850740590456"/><line stroke-width="2.23606797749979" x1="0.7383917279579085" y1="-9.071368087001417" x2="-6.473296838740227" y2="-50.32641651833808"/><line stroke-width="1" x1="0.7383917279579085" y1="-9.071368087001417" x2="-17.63803331245869" y2="19.865082324776044"/><line stroke-width="1" x1="0.7383917279579085" y1="-9.071368087001417" x2="-37.87574855193524" y2="-68.22357021978925"/><line stroke-width="1" x1="0.7383917279579085" y1="-9.071368087001417" x2="-26.116393349860502" y2="-33.15733761803082"/><line stroke-width="1" x1="0.7383917279579085" y1="-9.071368087001417" x2="75.52057453054358" y2="51.740750941736636"/><line stroke-width="1" x1="0.7383917279579085" y1="-9.071368087001417" x2="32.0547004023152" y2="-9.025775940549119"/><line stroke-width="2.449489742783178" x1="-45.097797790834704" y1="-11.967788698011177" x2="-6.473296838740227" y2="-50.32641651833808"/><line stroke-width="2.449489742783178" x1="-45.097797790834704" y1="-11.967788698011177" x2="0.7383917279579085" y2="-9.071368087001417"/><line stroke-width="1" x1="-45.097797790834704" y1="-11.967788698011177" x2="-17.63803331245869" y2="19.865082324776044"/><line stroke-width="1" x1="-45.097797790834704" y1="-11.967788698011177" x2="-37.87574855193524" y2="-68.22357021978925"/><line stroke-width="1.4142135623730951" x1="-45.097797790834704" y1="-11.967788698011177" x2="-26.116393349860502" y2="-33.15733761803082"/><line stroke-width="1" x1="-45.097797790834704" y1="-11.967788698011177" x2="75.52057453054358" y2="51.740750941736636"/><line stroke-width="1" x1="-45.097797790834704" y1="-11.967788698011177" x2="32.0547004023152" y2="-9.025775940549119"/><line stroke-width="2" x1="-28.414120500539283" y1="-15.245322265220935" x2="-6.473296838740227" y2="-50.32641651833808"/><line stroke-width="2" x1="-28.414120500539283" y1="-15.245322265220935" x2="-45.097797790834704" y2="-11.967788698011177"/><line stroke-width="2" x1="-28.414120500539283" y1="-15.245322265220935" x2="0.7383917279579085" y2="-9.071368087001417"/><line stroke-width="1" x1="-28.414120500539283" y1="-15.245322265220935" x2="-17.63803331245869" y2="19.865082324776044"/><line stroke-width="1" x1="-28.414120500539283" y1="-15.245322265220935" x2="-37.87574855193524" y2="-68.22357021978925"/><line stroke-width="1" x1="-28.414120500539283" y1="-15.245322265220935" x2="-26.116393349860502" y2="-33.15733761803082"/><line stroke-width="1" x1="-28.414120500539283" y1="-15.245322265220935" x2="32.0547004023152" y2="-9.025775940549119"/><line stroke-width="1" x1="-28.414120500539283" y1="-15.245322265220935" x2="99.9911662364165" y2="44.70532762620116"/><line stroke-width="1" x1="-28.76879775395656" y1="11.54945912847517" x2="-26.116393349860502" y2="-33.15733761803082"/><line stroke-width="1.4142135623730951" x1="-28.76879775395656" y1="11.54945912847517" x2="-45.097797790834704" y2="-11.967788698011177"/><line stroke-width="1.4142135623730951" x1="-28.76879775395656" y1="11.54945912847517" x2="0.7383917279579085" y2="-9.071368087001417"/><line stroke-width="1.4142135623730951" x1="-28.76879775395656" y1="11.54945912847517" x2="-28.414120500539283" y2="-15.245322265220935"/><line stroke-width="1" x1="-28.76879775395656" y1="11.54945912847517" x2="-17.63803331245869" y2="19.865082324776044"/><line stroke-width="1" x1="-28.76879775395656" y1="11.54945912847517" x2="75.52057453054358" y2="51.740750941736636"/><line stroke-width="1" x1="-28.76879775395656" y1="11.54945912847517" x2="32.0547004023152" y2="-9.025775940549119"/><line stroke-width="1" x1="-28.76879775395656" y1="11.54945912847517" x2="-6.473296838740227" y2="-50.32641651833808"/><line stroke-width="1.4142135623730951" x1="1.0710136746486612" y1="-37.35342423315961" x2="27.8506176961326" y2="-74.52172160627637"/><line stroke-width="1" x1="1.0710136746486612" y1="-37.35342423315961" x2="-26.116393349860502" y2="-33.15733761803082"/><line stroke-width="1" x1="1.0710136746486612" y1="-37.35342423315961" x2="-17.63803331245869" y2="19.865082324776044"/><line stroke-width="1.4142135623730951" x1="93.89973803788132" y1="97.4591734520101" x2="75.52057453054358" y2="51.740750941736636"/><line stroke-width="1.4142135623730951" x1="67.233546781163" y1="98.27741981645585" x2="75.52057453054358" y2="51.740750941736636"/><line stroke-width="1.7320508075688772" x1="67.233546781163" y1="98.27741981645585" x2="93.89973803788132" y2="97.4591734520101"/><line stroke-width="1.7320508075688772" x1="2.5320020858918064" y1="10.792145836995347" x2="-45.097797790834704" y2="-11.967788698011177"/><line stroke-width="1.7320508075688772" x1="2.5320020858918064" y1="10.792145836995347" x2="0.7383917279579085" y2="-9.071368087001417"/><line stroke-width="1.7320508075688772" x1="2.5320020858918064" y1="10.792145836995347" x2="-6.473296838740227" y2="-50.32641651833808"/><line stroke-width="1" x1="2.5320020858918064" y1="10.792145836995347" x2="75.52057453054358" y2="51.740750941736636"/><line stroke-width="1" x1="2.5320020858918064" y1="10.792145836995347" x2="32.0547004023152" y2="-9.025775940549119"/><line stroke-width="1" x1="2.5320020858918064" y1="10.792145836995347" x2="-28.414120500539283" y2="-15.245322265220935"/><line stroke-width="1" x1="2.5320020858918064" y1="10.792145836995347" x2="-28.76879775395656" y2="11.54945912847517"/><line stroke-width="1" x1="134.09685254947584" y1="91.53653464521597" x2="114.53827726445749" y2="69.61581635856511"/><line stroke-width="1" x1="134.09685254947584" y1="91.53653464521597" x2="170.09170340304908" y2="50.0951438341455"/><line stroke-width="1" x1="134.09685254947584" y1="91.53653464521597" x2="149.32134502487108" y2="108.54900111010768"/><line stroke-width="1" x1="134.09685254947584" y1="91.53653464521597" x2="170.16765347186376" y2="70.19720998084401"/><line stroke-width="1" x1="134.09685254947584" y1="91.53653464521597" x2="132.78713662625887" y2="48.41563652942718"/><line stroke-width="1" x1="134.09685254947584" y1="91.53653464521597" x2="75.52057453054358" y2="51.740750941736636"/><line stroke-width="1" x1="134.09685254947584" y1="91.53653464521597" x2="99.9911662364165" y2="44.70532762620116"/></g><g fill="currentColor" stroke="#fff" stroke-opacity="1" stroke-width="1.5"><circle r="5" fill="#f28e2c" cx="-149.51865657619464" cy="88.84675369583033"><title>Myriel
1</title></circle><circle r="5" fill="#f28e2c" cx="-182.56757264318753" cy="115.81606682964586"><title>Napoleon
1</title></circle><circle r="5" fill="#f28e2c" cx="-102.16148544727332" cy="51.129607056990935"><title>Mlle.Baptistine
1</title></circle><circle r="5" fill="#f28e2c" cx="-91.87969329221013" cy="70.32744268258382"><title>Mme.Magloire
1</title></circle><circle r="5" fill="#f28e2c" cx="-187.0753622181402" cy="99.16106252046633"><title>CountessdeLo
1</title></circle><circle r="5" fill="#f28e2c" cx="-189.27721902666661" cy="77.61172465118659"><title>Geborand
1</title></circle><circle r="5" fill="#f28e2c" cx="-174.98736576872466" cy="123.82708886764206"><title>Champtercier
1</title></circle><circle r="5" fill="#f28e2c" cx="-194.26612169264052" cy="89.88921681575918"><title>Cravatte
1</title></circle><circle r="5" fill="#f28e2c" cx="-163.3218575449329" cy="128.04307162461475"><title>Count
1</title></circle><circle r="5" fill="#f28e2c" cx="-192.01707987692905" cy="108.88533280444923"><title>OldMan
1</title></circle><circle r="5" fill="#e15759" cx="10.564255029660783" cy="43.03168239031618"><title>Labarre
2</title></circle><circle r="5" fill="#e15759" cx="-17.63803331245869" cy="19.865082324776044"><title>Valjean
2</title></circle><circle r="5" fill="#76b7b2" cx="-24.55713593934678" cy="-72.30281954918863"><title>Marguerite
3</title></circle><circle r="5" fill="#e15759" cx="-5.255166296279055" cy="55.632519536103494"><title>Mme.deR
2</title></circle><circle r="5" fill="#e15759" cx="-43.88810390062487" cy="51.20620807756204"><title>Isabeau
2</title></circle><circle r="5" fill="#e15759" cx="-54.179607326828894" cy="36.133253864212996"><title>Gervais
2</title></circle><circle r="5" fill="#76b7b2" cx="14.849706213988549" cy="-183.0361083212302"><title>Tholomyes
3</title></circle><circle r="5" fill="#76b7b2" cx="-30.748364500930006" cy="-219.96711760377264"><title>Listolier
3</title></circle><circle r="5" fill="#76b7b2" cx="-2.1156709126371713" cy="-249.5234987587165"><title>Fameuil
3</title></circle><circle r="5" fill="#76b7b2" cx="-8.788118774054114" cy="-223.01660954356385"><title>Blacheville
3</title></circle><circle r="5" fill="#76b7b2" cx="-23.170441439036647" cy="-250.26454877545"><title>Favourite
3</title></circle><circle r="5" fill="#76b7b2" cx="11.233885229488655" cy="-232.99102092115803"><title>Dahlia
3</title></circle><circle r="5" fill="#76b7b2" cx="-40.87921150323016" cy="-237.52118139028403"><title>Zephine
3</title></circle><circle r="5" fill="#76b7b2" cx="-26.97686094279156" cy="-147.03819767695882"><title>Fantine
3</title></circle><circle r="5" fill="#59a14f" cx="-37.87574855193524" cy="-68.22357021978925"><title>Mme.Thenardier
4</title></circle><circle r="5" fill="#59a14f" cx="-6.473296838740227" cy="-50.32641651833808"><title>Thenardier
4</title></circle><circle r="5" fill="#edc949" cx="27.8506176961326" cy="-74.52172160627637"><title>Cosette
5</title></circle><circle r="5" fill="#59a14f" cx="-26.116393349860502" cy="-33.15733761803082"><title>Javert
4</title></circle><circle r="5" fill="#4e79a7" cx="-86.01678072583347" cy="-8.917812853352837"><title>Fauchelevent
0</title></circle><circle r="5" fill="#e15759" cx="-37.51141922384537" cy="39.43503902997034"><title>Bamatabois
2</title></circle><circle r="5" fill="#76b7b2" cx="-63.790031954754696" cy="-139.38942869453012"><title>Perpetue
3</title></circle><circle r="5" fill="#e15759" cx="-44.598238097631956" cy="-86.04343100269618"><title>Simplice
2</title></circle><circle r="5" fill="#e15759" cx="-23.880116622630766" cy="58.080999560477984"><title>Scaufflaire
2</title></circle><circle r="5" fill="#e15759" cx="-57.18276219163485" cy="-2.4003712906119867"><title>Woman1
2</title></circle><circle r="5" fill="#e15759" cx="-14.394531475717265" cy="106.50941112371514"><title>Judge
2</title></circle><circle r="5" fill="#e15759" cx="-52.959590471947905" cy="88.16435904004558"><title>Champmathieu
2</title></circle><circle r="5" fill="#e15759" cx="-26.52650262866392" cy="91.80885507588647"><title>Brevet
2</title></circle><circle r="5" fill="#e15759" cx="-36.864236787422136" cy="115.14531722847613"><title>Chenildieu
2</title></circle><circle r="5" fill="#e15759" cx="-58.672033109726684" cy="106.01031553083364"><title>Cochepaille
2</title></circle><circle r="5" fill="#59a14f" cx="52.50040652252823" cy="-58.2675548145709"><title>Pontmercy
4</title></circle><circle r="5" fill="#af7aa1" cx="-49.51870667235556" cy="-70.849952723362"><title>Boulatruelle
6</title></circle><circle r="5" fill="#59a14f" cx="32.0547004023152" cy="-9.025775940549119"><title>Eponine
4</title></circle><circle r="5" fill="#59a14f" cx="-39.129249659392364" cy="-41.69751257214924"><title>Anzelma
4</title></circle><circle r="5" fill="#edc949" cx="9.19840600631349" cy="-28.559941997917853"><title>Woman2
5</title></circle><circle r="5" fill="#4e79a7" cx="-72.43741630040807" cy="22.986938037540178"><title>MotherInnocent
0</title></circle><circle r="5" fill="#4e79a7" cx="-131.13466827551517" cy="-11.811635598296242"><title>Gribier
0</title></circle><circle r="5" fill="#ff9da7" cx="74.23279473036138" cy="164.8324457301844"><title>Jondrette
7</title></circle><circle r="5" fill="#ff9da7" cx="75.50256466259815" cy="118.12145085935998"><title>Mme.Burgon
7</title></circle><circle r="5" fill="#9c755f" cx="75.52057453054358" cy="51.740750941736636"><title>Gavroche
8</title></circle><circle r="5" fill="#edc949" cx="56.21727688240714" cy="-37.5680896982638"><title>Gillenormand
5</title></circle><circle r="5" fill="#edc949" cx="9.914523084336112" cy="-78.4572571836244"><title>Magnon
5</title></circle><circle r="5" fill="#edc949" cx="64.56238638362744" cy="-61.41542248333768"><title>Mlle.Gillenormand
5</title></circle><circle r="5" fill="#edc949" cx="65.7048242301645" cy="-103.52290995637638"><title>Mme.Pontmercy
5</title></circle><circle r="5" fill="#edc949" cx="87.30626812002753" cy="-96.76407652733116"><title>Mlle.Vaubois
5</title></circle><circle r="5" fill="#edc949" cx="91.0787829803314" cy="-66.73382094607757"><title>Lt.Gillenormand
5</title></circle><circle r="5" fill="#9c755f" cx="96.64702387108343" cy="-11.36064306715062"><title>Marius
8</title></circle><circle r="5" fill="#edc949" cx="105.1006187309403" cy="-45.80702971044576"><title>BaronessT
5</title></circle><circle r="5" fill="#9c755f" cx="139.28043787224698" cy="21.850740590456"><title>Mabeuf
8</title></circle><circle r="5" fill="#9c755f" cx="99.9911662364165" cy="44.70532762620116"><title>Enjolras
8</title></circle><circle r="5" fill="#9c755f" cx="153.39440801291047" cy="52.791171859744814"><title>Combeferre
8</title></circle><circle r="5" fill="#9c755f" cx="162.1146156830619" cy="93.04608020801734"><title>Prouvaire
8</title></circle><circle r="5" fill="#9c755f" cx="144.12620657918086" cy="72.6785015971314"><title>Feuilly
8</title></circle><circle r="5" fill="#9c755f" cx="132.78713662625887" cy="48.41563652942718"><title>Courfeyrac
8</title></circle><circle r="5" fill="#9c755f" cx="170.16765347186376" cy="70.19720998084401"><title>Bahorel
8</title></circle><circle r="5" fill="#9c755f" cx="114.53827726445749" cy="69.61581635856511"><title>Bossuet
8</title></circle><circle r="5" fill="#9c755f" cx="170.09170340304908" cy="50.0951438341455"><title>Joly
8</title></circle><circle r="5" fill="#9c755f" cx="149.32134502487108" cy="108.54900111010768"><title>Grantaire
8</title></circle><circle r="5" fill="#bab0ab" cx="177.3995278759024" cy="10.277585564779606"><title>MotherPlutarch
9</title></circle><circle r="5" fill="#59a14f" cx="0.7383917279579085" cy="-9.071368087001417"><title>Gueulemer
4</title></circle><circle r="5" fill="#59a14f" cx="-45.097797790834704" cy="-11.967788698011177"><title>Babet
4</title></circle><circle r="5" fill="#59a14f" cx="-28.414120500539283" cy="-15.245322265220935"><title>Claquesous
4</title></circle><circle r="5" fill="#59a14f" cx="-28.76879775395656" cy="11.54945912847517"><title>Montparnasse
4</title></circle><circle r="5" fill="#edc949" cx="1.0710136746486612" cy="-37.35342423315961"><title>Toussaint
5</title></circle><circle r="5" fill="#4e79a7" cx="93.89973803788132" cy="97.4591734520101"><title>Child1
10</title></circle><circle r="5" fill="#4e79a7" cx="67.233546781163" cy="98.27741981645585"><title>Child2
10</title></circle><circle r="5" fill="#59a14f" cx="2.5320020858918064" cy="10.792145836995347"><title>Brujon
4</title></circle><circle r="5" fill="#9c755f" cx="134.09685254947584" cy="91.53653464521597"><title>Mme.Hucheloup
8</title></circle></g></svg>